<svg height="512pt" viewBox="0 -32 512 512" width="512pt" xmlns="http://www.w3.org/2000/svg"><path d="m504.5 17.492188v413.0625c0 5.519531-4.480469 10-10 10h-477c-5.519531 0-10-4.480469-10-10v-413.0625c0-5.519532 4.480469-10 10-10h477c5.519531 0 10 4.480468 10 10zm0 0" fill="#e3f4ff"/><path d="m504.5 17.5v413.050781c0 5.519531-4.480469 10-10 10h-29.671875c5.523437 0 10-4.480469 10-10v-413.050781c0-5.519531-4.476563-10-10-10h29.671875c5.519531 0 10 4.480469 10 10zm0 0" fill="#bddff4"/><path d="m504.5 324.183594v106.371094c0 5.519531-4.480469 10-10 10h-477c-5.519531 0-10-4.480469-10-10v-106.371094zm0 0" fill="#618baa"/><path d="m504.5 324.183594v106.371094c0 5.519531-4.480469 10-10 10h-29.671875c5.523437 0 10-4.480469 10-10v-106.371094zm0 0" fill="#4e7693"/><path d="m504.5 17.5v53.570312h-497v-53.570312c0-5.519531 4.480469-10 10-10h477c5.519531 0 10 4.480469 10 10zm0 0" fill="#618baa"/><path d="m504.5 17.5v53.570312h-29.671875v-53.570312c0-5.519531-4.476563-10-10-10h29.671875c5.519531 0 10 4.480469 10 10zm0 0" fill="#4e7693"/><path d="m153.390625 7.5v63.570312h-145.890625v-53.570312c0-5.519531 4.480469-10 10-10zm0 0" fill="#32dfb7"/><path d="m151.628906 260.675781c-3.507812 0-7.011718-1.335937-9.691406-4.011719l-49.988281-49.992187c-5.351563-5.351563-5.351563-14.027344 0-19.382813l49.988281-49.988281c5.351562-5.351562 14.03125-5.351562 19.382812 0 5.351563 5.351563 5.351563 14.027344 0 19.382813l-40.296874 40.296875 40.296874 40.300781c5.351563 5.351562 5.351563 14.03125 0 19.382812-2.675781 2.675782-6.183593 4.011719-9.691406 4.011719zm0 0" fill="#43a3f9"/><path d="m360.367188 260.675781c-3.507813.003907-7.011719-1.335937-9.6875-4.011719-5.355469-5.351562-5.355469-14.03125 0-19.382812l40.296874-40.300781-40.296874-40.296875c-5.355469-5.351563-5.355469-14.03125 0-19.382813 5.347656-5.351562 14.027343-5.351562 19.378906 0l49.992187 49.988281c2.570313 2.570313 4.011719 6.058594 4.011719 9.691407 0 3.636719-1.441406 7.121093-4.011719 9.691406l-49.992187 49.992187c-2.675782 2.675782-6.183594 4.011719-9.691406 4.011719zm0 0" fill="#43a3f9"/><path d="m225.777344 266.058594c-6.53125-2.859375-9.511719-10.46875-6.652344-17l50.09375-114.5c2.859375-6.53125 10.46875-9.511719 17.003906-6.652344 6.53125 2.859375 9.507813 10.46875 6.652344 17l-50.09375 114.5c-2.859375 6.53125-10.472656 9.511719-17.003906 6.652344zm0 0" fill="#32dfb7"/><path d="m504.5 362.316406c4.144531 0 7.5-3.355468 7.5-7.5v-337.316406c0-9.648438-7.851562-17.5-17.5-17.5h-41.140625c-4.144531 0-7.5 3.359375-7.5 7.5s3.355469 7.5 7.5 7.5h41.140625c1.378906 0 2.5 1.121094 2.5 2.5v46.070312h-336.109375v-48.570312h259.808594c4.140625 0 7.5-3.359375 7.5-7.5s-3.359375-7.5-7.5-7.5h-403.199219c-9.648438 0-17.5 7.851562-17.5 17.5v127.328125c0 4.140625 3.355469 7.5 7.5 7.5s7.5-3.359375 7.5-7.5v-66.257813h482v238.113282h-482v-139.195313c0-4.140625-3.355469-7.5-7.5-7.5s-7.5 3.359375-7.5 7.5v253.058594c0 9.648437 7.851562 17.5 17.5 17.5h477c9.648438 0 17.5-7.851563 17.5-17.5v-43.070313c0-4.140624-3.355469-7.5-7.5-7.5s-7.5 3.359376-7.5 7.5v43.070313c0 1.378906-1.121094 2.5-2.5 2.5h-477c-1.378906 0-2.5-1.121094-2.5-2.5v-98.863281h482v23.132812c0 4.144532 3.355469 7.5 7.5 7.5zm-489.5-344.816406c0-1.378906 1.121094-2.5 2.5-2.5h128.390625v48.570312h-130.890625zm0 0"/><path d="m54.007812 31.707031h-.105468c-.011719 0-.023438 0-.035156 0-4.125 0-7.476563 3.335938-7.5 7.464844-.019532 4.140625 3.324218 7.515625 7.46875 7.535156h.101562.039062c4.125 0 7.476563-3.335937 7.496094-7.464843.019532-4.144532-3.324218-7.515626-7.464844-7.535157zm0 0"/><path d="m81.484375 31.785156h-.101563c-4.144531 0-7.5 3.359375-7.5 7.5 0 4.144532 3.355469 7.5 7.5 7.5h.101563c4.144531 0 7.5-3.355468 7.5-7.5 0-4.140625-3.355469-7.5-7.5-7.5zm0 0"/><path d="m109.035156 31.867188h-.105468c-.015626 0-.023438 0-.035157 0-4.128906 0-7.480469 3.332031-7.5 7.464843-.019531 4.140625 3.324219 7.515625 7.464844 7.535157h.105469.035156c4.128906 0 7.480469-3.335938 7.5-7.46875.019531-4.140626-3.324219-7.511719-7.464844-7.53125zm0 0"/><path d="m172.835938 146.992188c0-5.664063-2.207032-10.988282-6.210938-14.992188-4.003906-4.007812-9.328125-6.210938-14.996094-6.210938-5.664062 0-10.988281 2.207032-14.992187 6.210938l-49.988281 49.988281c-4.007813 4.003907-6.210938 9.328125-6.210938 14.992188 0 5.664062 2.203125 10.992187 6.210938 14.996093l49.988281 49.988282c4.007812 4.007812 9.332031 6.210937 14.992187 6.210937 5.664063 0 10.988282-2.207031 14.992188-6.210937 4.007812-4.003906 6.214844-9.328125 6.214844-14.992188 0-5.664062-2.207032-10.988281-6.210938-14.996094l-34.996094-34.996093 34.996094-34.996094c4.003906-4.003906 6.210938-9.328125 6.210938-14.992187zm-16.820313 4.386718-40.296875 40.300782c-2.929688 2.929687-2.929688 7.675781 0 10.605468l40.300781 40.300782c1.171875 1.171874 1.816407 2.730468 1.816407 4.386718s-.648438 3.214844-1.820313 4.386719-2.726563 1.816406-4.386719 1.816406c-1.65625 0-3.214844-.644531-4.386718-1.816406l-49.988282-49.992187c-1.171875-1.171876-1.816406-2.726563-1.816406-4.386719 0-1.65625.644531-3.214844 1.816406-4.386719l49.988282-49.992188c1.171874-1.167968 2.730468-1.816406 4.386718-1.816406s3.214844.648438 4.390625 1.820313c1.171875 1.171875 1.816407 2.726562 1.816407 4.386719 0 1.65625-.648438 3.214843-1.820313 4.386718zm0 0"/><path d="m339.164062 246.972656c0 5.664063 2.207032 10.988282 6.210938 14.996094 4.007812 4.003906 9.328125 6.207031 14.992188 6.207031h.003906c5.664062 0 10.988281-2.207031 14.992187-6.210937l49.992188-49.988282c4.003906-4.007812 6.207031-9.332031 6.207031-14.996093 0-5.660157-2.203125-10.988281-6.207031-14.992188l-49.992188-49.988281c-4.003906-4.007812-9.328125-6.214844-14.992187-6.214844-5.667969 0-10.992188 2.207032-14.996094 6.210938-4.003906 4.007812-6.210938 9.332031-6.210938 14.996094 0 5.664062 2.207032 10.988281 6.210938 14.992187l34.996094 34.996094-34.996094 34.996093c-4.003906 4.007813-6.210938 9.332032-6.210938 14.996094zm16.816407-4.386718 40.300781-40.300782c1.40625-1.40625 2.195312-3.3125 2.195312-5.300781 0-1.992187-.789062-3.898437-2.195312-5.304687l-40.300781-40.296876c-1.171875-1.171874-1.816407-2.730468-1.816407-4.390624 0-1.65625.644532-3.214844 1.816407-4.386719s2.730469-1.816407 4.390625-1.816407c1.65625 0 3.214844.644532 4.386718 1.816407l49.988282 49.992187c1.171875 1.171875 1.816406 2.726563 1.816406 4.386719 0 1.65625-.644531 3.214844-1.816406 4.386719l-49.988282 49.992187c-1.171874 1.171875-2.730468 1.816407-4.390624 1.816407-1.65625 0-3.214844-.648438-4.386719-1.816407-1.171875-1.171875-1.816407-2.730469-1.816407-4.390625 0-1.65625.644532-3.214844 1.816407-4.386718zm0 0"/><path d="m222.773438 272.929688c2.621093 1.148437 5.394531 1.722656 8.171874 1.722656 2.515626 0 5.03125-.46875 7.445313-1.414063 5.078125-1.988281 9.074219-5.832031 11.261719-10.828125l50.09375-114.496094c4.511718-10.308593-.207032-22.367187-10.519532-26.878906-4.992187-2.1875-10.539062-2.296875-15.617187-.308594-5.078125 1.988282-9.078125 5.832032-11.261719 10.824219l-50.09375 114.5c-4.511718 10.308594.207032 22.367188 10.519532 26.878907-.003907 0-.003907 0 0 0zm3.222656-20.867188 50.09375-114.496094c.582031-1.324218 1.640625-2.34375 2.984375-2.871094 1.347656-.527343 2.816406-.5 4.140625.082032 2.734375 1.195312 3.984375 4.390625 2.789062 7.125l-50.09375 114.496094c-.582031 1.324218-1.640625 2.34375-2.984375 2.871093-1.34375.527344-2.816406.5-4.140625-.082031-2.734375-1.195312-3.984375-4.390625-2.789062-7.125zm0 0"/><path d="m232 349.261719h-168c-4.144531 0-7.5 3.359375-7.5 7.5s3.355469 7.5 7.5 7.5h168c4.144531 0 7.5-3.359375 7.5-7.5s-3.355469-7.5-7.5-7.5zm0 0"/><path d="m232 374.871094h-168c-4.144531 0-7.5 3.355468-7.5 7.5 0 4.140625 3.355469 7.5 7.5 7.5h168c4.144531 0 7.5-3.359375 7.5-7.5 0-4.144532-3.355469-7.5-7.5-7.5zm0 0"/><path d="m232 400.476562h-168c-4.144531 0-7.5 3.359376-7.5 7.5 0 4.140626 3.355469 7.5 7.5 7.5h168c4.144531 0 7.5-3.359374 7.5-7.5 0-4.140624-3.355469-7.5-7.5-7.5zm0 0"/><path d="m448 349.261719h-168c-4.144531 0-7.5 3.359375-7.5 7.5s3.355469 7.5 7.5 7.5h168c4.144531 0 7.5-3.359375 7.5-7.5s-3.355469-7.5-7.5-7.5zm0 0"/><path d="m448 374.871094h-168c-4.144531 0-7.5 3.355468-7.5 7.5 0 4.140625 3.355469 7.5 7.5 7.5h168c4.144531 0 7.5-3.359375 7.5-7.5 0-4.144532-3.355469-7.5-7.5-7.5zm0 0"/><path d="m448 400.476562h-168c-4.144531 0-7.5 3.359376-7.5 7.5 0 4.140626 3.355469 7.5 7.5 7.5h168c4.144531 0 7.5-3.359374 7.5-7.5 0-4.140624-3.355469-7.5-7.5-7.5zm0 0"/></svg>