<svg height="512pt" viewBox="-25 0 512 512.00099" width="512pt" xmlns="http://www.w3.org/2000/svg"><path d="m440.371094 504.5h-419.566406c-7.347657 0-13.304688-5.957031-13.304688-13.304688v-463.738281c0-11.019531 8.9375-19.957031 19.957031-19.957031h406.261719c11.023438 0 19.957031 8.9375 19.957031 19.957031v463.738281c0 7.347657-5.957031 13.304688-13.304687 13.304688zm0 0" fill="#e3f4ff"/><path d="m453.679688 27.464844v463.734375c0 7.34375-5.960938 13.304687-13.304688 13.304687h-41.699219c7.359375 0 13.304688-5.960937 13.304688-13.304687v-463.734375c0-11.03125-8.925781-19.960938-19.957031-19.960938h41.699218c11.015625 0 19.957032 8.929688 19.957032 19.960938zm0 0" fill="#bddff4"/><path d="m453.679688 27.464844v66.710937h-446.183594v-66.710937c0-11.03125 8.941406-19.960938 19.957031-19.960938h406.269531c11.015625 0 19.957032 8.929688 19.957032 19.960938zm0 0" fill="#a7c7d3"/><path d="m453.679688 27.464844v66.710937h-41.699219v-66.710937c0-11.03125-8.925781-19.960938-19.957031-19.960938h41.699218c11.015625 0 19.957032 8.929688 19.957032 19.960938zm0 0" fill="#89b4c9"/><path d="m128.585938 162.941406v57.066406c0 3.847657 3.125 6.972657 6.972656 6.972657h20.917968c3.851563 0 6.972657-3.125 6.972657-6.972657v-22.203124c0-3.851563 3.121093-6.972657 6.972656-6.972657h35.761719c3.851562 0 6.972656 3.121094 6.972656 6.972657v139.976562c0 3.851562-3.121094 6.976562-6.972656 6.976562h-35.761719c-3.851563 0-6.972656 3.121094-6.972656 6.972657v20.914062c0 3.851563 3.121093 6.976563 6.972656 6.976563h120.332031c3.851563 0 6.972656-3.125 6.972656-6.976563v-20.914062c0-3.851563-3.121093-6.972657-6.972656-6.972657h-35.761718c-3.851563 0-6.972657-3.125-6.972657-6.976562v-139.976562c0-3.851563 3.121094-6.972657 6.972657-6.972657h35.761718c3.851563 0 6.972656 3.121094 6.972656 6.972657v22.203124c0 3.847657 3.121094 6.972657 6.972657 6.972657h20.917969c3.851562 0 6.972656-3.125 6.972656-6.972657v-57.066406c0-3.851562-3.121094-6.972656-6.972656-6.972656h-190.058594c-3.847656 0-6.972656 3.121094-6.972656 6.972656zm0 0" fill="#fc3e81"/><path d="m325.617188 438.1875h-190.058594c-3.847656 0-6.972656-3.125-6.972656-6.976562v-20.917969c0-3.847657 3.125-6.96875 6.972656-6.96875h190.058594c3.851562 0 6.972656 3.121093 6.972656 6.96875v20.917969c0 3.851562-3.121094 6.976562-6.972656 6.976562zm0 0" fill="#1685fb"/><path d="m433.71875 0h-114.714844c-4.140625 0-7.5 3.359375-7.5 7.5s3.359375 7.5 7.5 7.5h114.714844c6.867188 0 12.457031 5.589844 12.457031 12.457031v59.222657h-431.175781v-59.222657c0-6.867187 5.589844-12.457031 12.457031-12.457031h258.886719c4.144531 0 7.5-3.359375 7.5-7.5s-3.355469-7.5-7.5-7.5h-258.886719c-15.140625 0-27.457031 12.316406-27.457031 27.457031v374.808594c0 4.144531 3.359375 7.5 7.5 7.5s7.5-3.355469 7.5-7.5v-300.585937h431.175781v389.515624c0 3.199219-2.605469 5.804688-5.804687 5.804688h-419.566406c-3.199219 0-5.804688-2.601562-5.804688-5.804688v-56.265624c0-4.144532-3.359375-7.5-7.5-7.5s-7.5 3.355468-7.5 7.5v56.265624c0 11.472657 9.332031 20.804688 20.804688 20.804688h419.566406c11.472656 0 20.804687-9.332031 20.804687-20.804688v-463.738281c0-15.140625-12.316406-27.457031-27.457031-27.457031zm0 0"/><path d="m77.347656 480.988281h304.820313c4.144531 0 7.5-3.359375 7.5-7.5 0-4.144531-3.355469-7.5-7.5-7.5h-304.820313c-4.144531 0-7.5 3.355469-7.5 7.5 0 4.140625 3.355469 7.5 7.5 7.5zm0 0"/><path d="m389.667969 124.003906c0-4.144531-3.359375-7.5-7.5-7.5h-304.824219c-4.140625 0-7.5 3.355469-7.5 7.5 0 4.140625 3.359375 7.5 7.5 7.5h304.824219c4.140625 0 7.5-3.359375 7.5-7.5zm0 0"/><path d="m80.570312 35.695312c-2.929687-2.925781-7.675781-2.925781-10.605468 0l-3.445313 3.449219-3.449219-3.449219c-2.929687-2.925781-7.675781-2.925781-10.605468 0-2.929688 2.929688-2.929688 7.679688 0 10.609376l3.445312 3.445312-3.445312 3.449219c-2.929688 2.925781-2.929688 7.675781 0 10.605469 1.464844 1.464843 3.382812 2.195312 5.300781 2.195312 1.921875 0 3.839844-.730469 5.304687-2.195312l3.445313-3.449219 3.449219 3.449219c1.464844 1.464843 3.382812 2.195312 5.300781 2.195312 1.921875 0 3.839844-.730469 5.304687-2.195312 2.929688-2.929688 2.929688-7.679688 0-10.605469l-3.449218-3.449219 3.449218-3.445312c2.929688-2.929688 2.929688-7.679688 0-10.609376zm0 0"/><path d="m382.242188 35.84375c-2.84375-3.007812-7.59375-3.136719-10.601563-.292969l-9.511719 9c-1.496094 1.417969-2.34375 3.386719-2.34375 5.449219s.847656 4.03125 2.34375 5.449219l9.511719 9c1.449219 1.371093 3.304687 2.050781 5.152344 2.050781 1.988281 0 3.976562-.785156 5.449219-2.34375 2.847656-3.007812 2.71875-7.757812-.292969-10.605469l-3.75-3.550781 3.753906-3.550781c3.007813-2.847657 3.136719-7.59375.289063-10.605469zm0 0"/><path d="m408.855469 35.84375c-2.847657-3.007812-7.59375-3.136719-10.601563-.289062l-9.511718 9c-1.496094 1.414062-2.34375 3.386718-2.34375 5.445312s.847656 4.03125 2.34375 5.449219l9.511718 9c1.449219 1.371093 3.304688 2.050781 5.152344 2.050781 1.988281 0 3.976562-.785156 5.449219-2.34375 2.847656-3.007812 2.714843-7.757812-.292969-10.605469l-3.753906-3.550781 3.753906-3.550781c3.011719-2.847657 3.140625-7.597657.292969-10.605469zm0 0"/><path d="m340.089844 162.941406c0-7.980468-6.492188-14.472656-14.472656-14.472656h-190.058594c-7.976563 0-14.472656 6.492188-14.472656 14.472656v57.0625c0 7.980469 6.492187 14.472656 14.472656 14.472656h20.917968c7.980469 0 14.472657-6.488281 14.472657-14.472656v-21.671875h34.707031v138.925781h-35.234375c-7.980469 0-14.472656 6.488282-14.472656 14.472657v20.914062c0 7.980469 6.492187 14.476563 14.472656 14.476563h120.332031c7.980469 0 14.472656-6.492188 14.472656-14.476563v-20.914062c0-7.980469-6.492187-14.472657-14.472656-14.472657h-35.234375v-46.324218c0-4.140625-3.355469-7.5-7.5-7.5s-7.5 3.359375-7.5 7.5v46.851562c0 7.980469 6.492188 14.472656 14.472657 14.472656h35.234374v19.863282h-119.277343v-19.863282h35.234375c7.980468 0 14.472656-6.492187 14.472656-14.472656v-139.980468c0-7.980469-6.492188-14.476563-14.472656-14.476563h-35.761719c-7.976563 0-14.472656 6.492187-14.472656 14.476563v21.671874h-19.859375v-56.007812h189v56.007812h-19.863282v-21.671874c0-7.980469-6.492187-14.476563-14.472656-14.476563h-35.761718c-7.980469 0-14.472657 6.492187-14.472657 14.476563v60.46875c0 4.140624 3.355469 7.5 7.5 7.5s7.5-3.359376 7.5-7.5v-59.941407h34.707031v21.675781c0 7.980469 6.492188 14.472657 14.472657 14.472657h20.917969c7.980468 0 14.472656-6.492188 14.472656-14.472657zm0 0"/><path d="m325.617188 395.824219h-190.058594c-7.976563 0-14.472656 6.488281-14.472656 14.46875v20.917969c0 7.980468 6.492187 14.472656 14.472656 14.472656h190.058594c7.980468 0 14.472656-6.492188 14.472656-14.472656v-20.917969c0-7.976563-6.492188-14.46875-14.472656-14.46875zm-.527344 34.859375h-189.003906v-19.859375h189.003906zm0 0"/></svg>