<svg id="visual" viewBox="0 0 675 900" width="675" height="900" xmlns="http://www.w3.org/2000/svg" xmlns:xlink="http://www.w3.org/1999/xlink" version="1.1"><rect x="0" y="0" width="675" height="900" fill="#001220"></rect><defs><linearGradient id="grad1_0" x1="0%" y1="100%" x2="100%" y2="0%"><stop offset="30%" stop-color="#001220" stop-opacity="1"></stop><stop offset="70%" stop-color="#001220" stop-opacity="1"></stop></linearGradient></defs><defs><linearGradient id="grad2_0" x1="0%" y1="100%" x2="100%" y2="0%"><stop offset="30%" stop-color="#001220" stop-opacity="1"></stop><stop offset="70%" stop-color="#001220" stop-opacity="1"></stop></linearGradient></defs><g transform="translate(675, 900)"><path d="M-337.5 0C-316.6 -51.7 -295.7 -103.5 -270.2 -156C-244.7 -208.5 -214.6 -261.9 -168.8 -292.3C-122.9 -322.7 -61.5 -330.1 0 -337.5L0 0Z" fill="#4FACF7"></path></g><g transform="translate(0, 0)"><path d="M337.5 0C327.2 57.9 317 115.7 290.1 167.5C263.3 219.3 219.9 265 168.8 292.3C117.6 319.6 58.8 328.6 0 337.5L0 0Z" fill="#4FACF7"></path></g></svg>