<svg id="visual" viewBox="0 0 900 600" width="900" height="600" xmlns="http://www.w3.org/2000/svg" xmlns:xlink="http://www.w3.org/1999/xlink" version="1.1"><path d="M0 441L21.5 448C43 455 86 469 128.8 472.5C171.7 476 214.3 469 257.2 454.8C300 440.7 343 419.3 385.8 421C428.7 422.7 471.3 447.3 514.2 463.5C557 479.7 600 487.3 642.8 480.3C685.7 473.3 728.3 451.7 771.2 434C814 416.3 857 402.7 878.5 395.8L900 389L900 601L878.5 601C857 601 814 601 771.2 601C728.3 601 685.7 601 642.8 601C600 601 557 601 514.2 601C471.3 601 428.7 601 385.8 601C343 601 300 601 257.2 601C214.3 601 171.7 601 128.8 601C86 601 43 601 21.5 601L0 601Z" fill="#fafcff" stroke-linecap="round" stroke-linejoin="miter"></path></svg>