<svg id="visual" viewBox="0 0 900 800" width="100%" height="200" xmlns="http://www.w3.org/2000/svg" xmlns:xlink="http://www.w3.org/1999/xlink" version="1.1"><path d="M0 540L25 534.2C50 528.3 100 516.7 150 511C200 505.3 250 505.7 300 509C350 512.3 400 518.7 450 522.7C500 526.7 550 528.3 600 520.3C650 512.3 700 494.7 750 494C800 493.3 850 509.7 875 517.8L900 526L900 601L875 601C850 601 800 601 750 601C700 601 650 601 600 601C550 601 500 601 450 601C400 601 350 601 300 601C250 601 200 601 150 601C100 601 50 601 25 601L0 601Z" fill="#fafcff" stroke-linecap="round" stroke-linejoin="miter"></path></svg>